<svg xmlns="http://www.w3.org/2000/svg" width="287.142" height="79.714" viewBox="0 0 287.142 79.714">
  <g id="itc" transform="translate(-308.995 -360)">
    <g id="Group_1" data-name="Group 1" transform="translate(308.995 360)">
      <path id="Path_1" data-name="Path 1" d="M-2658.112,230.166l-19.974-19.635a25.453,25.453,0,0,0-17.508-7.376,25.453,25.453,0,0,0-17.507,7.376l-19.974,19.635a24.361,24.361,0,0,0-7.353,17.441,24.361,24.361,0,0,0,7.353,17.441l2.52,2.481c4.491,4.413,27.873,14.491,29.974,15.339V244.748a2.936,2.936,0,0,0-1.919-2.65l-12.455-4.871a5.943,5.943,0,0,1-3.838,1.4,5.979,5.979,0,0,1-5.979-5.98,5.979,5.979,0,0,1,5.979-5.978,5.972,5.972,0,0,1,5.927,5.247l12.128,4.74a14.892,14.892,0,0,0,5.145,1.007,14.594,14.594,0,0,0,5.144-1.005l12.128-4.738a5.982,5.982,0,0,1,5.927-5.248,5.978,5.978,0,0,1,5.979,5.98,5.978,5.978,0,0,1-5.979,5.978,5.916,5.916,0,0,1-3.838-1.4L-2688.7,242.1a2.922,2.922,0,0,0-1.919,2.65v38.119c2.1-.849,25.483-10.927,29.974-15.339l2.52-2.481a24.352,24.352,0,0,0,7.365-17.439,24.351,24.351,0,0,0-7.352-17.444m-37.48-.914a7.227,7.227,0,0,1-7.22-7.219,7.227,7.227,0,0,1,7.22-7.219,7.226,7.226,0,0,1,7.219,7.219,7.226,7.226,0,0,1-7.219,7.219" transform="translate(2740.429 -203.155)" fill="#fff"/>
    </g>
    <g id="Group_4" data-name="Group 4" transform="translate(418.107 375.568)">
      <g id="Group_2" data-name="Group 2" transform="translate(0 0)">
        <path id="Path_2" data-name="Path 2" d="M-2245.35,275.314h4.636v25.867h-4.636Z" transform="translate(2245.35 -274.978)" fill="#fff"/>
        <path id="Path_3" data-name="Path 3" d="M-2189.519,278.942h-7.626v22.239h-4.636V278.942h-7.592v-3.628h19.854Z" transform="translate(2217.302 -274.978)" fill="#fff"/>
        <path id="Path_4" data-name="Path 4" d="M-2079.36,287.061c0-7.962,5.039-13.27,12.6-13.27,6.484,0,11.187,3.863,11.859,9.675h-4.535c-.5-3.561-3.427-5.946-7.323-5.946-4.669,0-7.793,3.83-7.793,9.541s3.124,9.541,7.793,9.541c3.9,0,6.82-2.419,7.323-6.013h4.535c-.672,5.845-5.408,9.741-11.859,9.741C-2074.322,300.33-2079.36,295.022-2079.36,287.061Z" transform="translate(2115.943 -273.791)" fill="#fff"/>
        <path id="Path_5" data-name="Path 5" d="M-1932.342,297.553v3.628h-18.376V275.314h17.973v3.628h-13.337V286.1h12.128v3.627h-12.128v7.827Z" transform="translate(2015.653 -274.978)" fill="#fff"/>
        <path id="Path_6" data-name="Path 6" d="M-1827.545,275.314v25.867h-4.367l-11.859-18.611h-.067l.1,18.611h-4.4V275.314h4.4l11.825,18.678h.067l-.1-18.678Z" transform="translate(1935.681 -274.978)" fill="#fff"/>
        <path id="Path_7" data-name="Path 7" d="M-1719.919,278.942h-7.625v22.239h-4.636V278.942h-7.592v-3.628h19.854Z" transform="translate(1851.199 -274.978)" fill="#fff"/>
        <path id="Path_8" data-name="Path 8" d="M-1616.224,297.553v3.628H-1634.6V275.314h17.973v3.628h-13.337V286.1h12.127v3.627h-12.127v7.827Z" transform="translate(1769.205 -274.978)" fill="#fff"/>
        <path id="Path_9" data-name="Path 9" d="M-1521.774,290.666h-5.61v10.515h-4.636V275.314h10.246c5.745,0,9.608,2.956,9.608,7.357a7.457,7.457,0,0,1-5.174,7.223l6.114,11.288h-5.174Zm-5.61-3.426h5.845c2.755,0,4.6-1.68,4.6-4.233,0-2.419-1.848-4.065-4.6-4.065h-5.845Z" transform="translate(1689.233 -274.978)" fill="#fff"/>
      </g>
      <g id="Group_3" data-name="Group 3" transform="translate(77.518 38.078)">
        <path id="Path_10" data-name="Path 10" d="M-1892.8,452.935v2.941h-.827v-8.007h3.573q2.275,0,2.275,2.6a2.844,2.844,0,0,1-.54,1.769,1.965,1.965,0,0,1-1.677.7Zm0-4.377V452.2h2.734a1.2,1.2,0,0,0,1.017-.465,2.084,2.084,0,0,0,.35-1.281,2.493,2.493,0,0,0-.333-1.4,1.1,1.1,0,0,0-.976-.494Z" transform="translate(1893.623 -447.582)" fill="#fff"/>
        <path id="Path_11" data-name="Path 11" d="M-1861.73,460.18a3.552,3.552,0,0,1,.609-2.378,2.685,2.685,0,0,1,2.022-.655,2.684,2.684,0,0,1,2.022.655,3.479,3.479,0,0,1,.62,2.378,3.6,3.6,0,0,1-.62,2.413,2.627,2.627,0,0,1-2.022.678,2.628,2.628,0,0,1-2.022-.678A3.646,3.646,0,0,1-1861.73,460.18Zm2.631-2.344a1.782,1.782,0,0,0-1.425.46,3.283,3.283,0,0,0-.379,1.907,3.3,3.3,0,0,0,.379,1.884,1.728,1.728,0,0,0,1.425.494,1.709,1.709,0,0,0,1.424-.494,3.217,3.217,0,0,0,.391-1.884,3.285,3.285,0,0,0-.379-1.907,1.8,1.8,0,0,0-1.435-.46Z" transform="translate(1868.759 -454.815)" fill="#fff"/>
        <path id="Path_12" data-name="Path 12" d="M-1825.307,457.877h.839a43.363,43.363,0,0,1-1.976,5.8h-1.058a40.077,40.077,0,0,0-1.286-4.94,50.616,50.616,0,0,1-1.494,4.94h-1.058a50.484,50.484,0,0,0-1.884-5.8h.885a43.979,43.979,0,0,1,1.562,5.089q.4-1.114.85-2.642.46-1.609.655-2.446h.954a49.271,49.271,0,0,1,1.379,5.089A42.5,42.5,0,0,0-1825.307,457.877Z" transform="translate(1846.536 -455.384)" fill="#fff"/>
        <path id="Path_13" data-name="Path 13" d="M-1786.245,457.147a2.189,2.189,0,0,1,1.815.678,4,4,0,0,1,.551,2.458h-4.147a2.8,2.8,0,0,0,.448,1.827,2.043,2.043,0,0,0,1.505.46,4.843,4.843,0,0,0,1.666-.31l.172.689a6.458,6.458,0,0,1-1.907.322,2.744,2.744,0,0,1-2.057-.689,3.464,3.464,0,0,1-.655-2.4,3.5,3.5,0,0,1,.62-2.332A2.526,2.526,0,0,1-1786.245,457.147Zm0,.7a1.891,1.891,0,0,0-1.321.379,2.093,2.093,0,0,0-.448,1.379h3.286a2.374,2.374,0,0,0-.368-1.4A1.505,1.505,0,0,0-1786.245,457.848Z" transform="translate(1811.944 -454.815)" fill="#fff"/>
        <path id="Path_14" data-name="Path 14" d="M-1757.342,457.146a4.8,4.8,0,0,1,.6.035v.77a4.111,4.111,0,0,0-.6-.046,2.932,2.932,0,0,0-1.177.2.628.628,0,0,0-.454.569v4.433h-.747v-5.8h.747v.413a1.467,1.467,0,0,1,.637-.408A2.806,2.806,0,0,1-1757.342,457.146Z" transform="translate(1789.231 -454.814)" fill="#fff"/>
        <path id="Path_15" data-name="Path 15" d="M-1739.907,457.147a2.189,2.189,0,0,1,1.815.678,4,4,0,0,1,.551,2.458h-4.147a2.807,2.807,0,0,0,.448,1.827,2.043,2.043,0,0,0,1.505.46,4.843,4.843,0,0,0,1.666-.31l.172.689a6.459,6.459,0,0,1-1.907.322,2.745,2.745,0,0,1-2.057-.689,3.467,3.467,0,0,1-.655-2.4,3.5,3.5,0,0,1,.62-2.332A2.527,2.527,0,0,1-1739.907,457.147Zm0,.7a1.9,1.9,0,0,0-1.322.379,2.093,2.093,0,0,0-.448,1.379h3.286a2.375,2.375,0,0,0-.368-1.4A1.5,1.5,0,0,0-1739.907,457.848Z" transform="translate(1775.819 -454.815)" fill="#fff"/>
        <path id="Path_16" data-name="Path 16" d="M-1711.426,448.9a2.509,2.509,0,0,1,1.6.471v-2.8h.747v8a4.978,4.978,0,0,1-1.126.333,6.974,6.974,0,0,1-1.218.126,2.683,2.683,0,0,1-2.022-.655,3.6,3.6,0,0,1-.609-2.39,3.622,3.622,0,0,1,.609-2.4A2.628,2.628,0,0,1-1711.426,448.9Zm0,5.411a4.7,4.7,0,0,0,1.6-.242v-3.641a.67.67,0,0,0-.448-.592,2.567,2.567,0,0,0-1.149-.224,1.752,1.752,0,0,0-1.424.483,3.237,3.237,0,0,0-.379,1.873,3.514,3.514,0,0,0,.379,1.9,1.858,1.858,0,0,0,1.424.448Z" transform="translate(1753.632 -446.565)" fill="#fff"/>
        <path id="Path_17" data-name="Path 17" d="M-1666.31,448.9a2.588,2.588,0,0,1,2.01.678,3.544,3.544,0,0,1,.62,2.4,3.552,3.552,0,0,1-.62,2.39,2.644,2.644,0,0,1-2.01.655,6.974,6.974,0,0,1-1.218-.127,4.979,4.979,0,0,1-1.126-.333v-8h.747v2.8a2.51,2.51,0,0,1,1.6-.471Zm0,5.411a1.852,1.852,0,0,0,1.424-.448,3.517,3.517,0,0,0,.379-1.9,3.127,3.127,0,0,0-.391-1.873,1.715,1.715,0,0,0-1.413-.483,2.568,2.568,0,0,0-1.149.224.67.67,0,0,0-.448.592v3.642a4.765,4.765,0,0,0,1.6.242Z" transform="translate(1718.236 -446.565)" fill="#fff"/>
        <path id="Path_18" data-name="Path 18" d="M-1639.362,463.954a39.332,39.332,0,0,0-2.138-6.077h.839a38.679,38.679,0,0,1,1.792,5.135,45.676,45.676,0,0,0,1.827-5.135h.816a58.974,58.974,0,0,1-2.16,5.8q-.425,1.011-1.046,2.206h-.873Q-1639.834,465.011-1639.362,463.954Z" transform="translate(1697.066 -455.384)" fill="#fff"/>
        <path id="Path_19" data-name="Path 19" d="M-1596.09,455.876v-8.007h.827v8.007Z" transform="translate(1661.664 -447.582)" fill="#fff"/>
        <path id="Path_20" data-name="Path 20" d="M-1580.425,448.561h-2.769v7.317h-.839v-7.317h-2.78v-.689h6.388Z" transform="translate(1654.432 -447.584)" fill="#fff"/>
        <path id="Path_21" data-name="Path 21" d="M-1536.516,452.935v2.941h-.827v-8.007h3.573q2.275,0,2.275,2.6a2.844,2.844,0,0,1-.54,1.769,1.965,1.965,0,0,1-1.677.7Zm0-4.377V452.2h2.734a1.2,1.2,0,0,0,1.017-.465,2.088,2.088,0,0,0,.35-1.281,2.5,2.5,0,0,0-.333-1.4,1.1,1.1,0,0,0-.977-.494Z" transform="translate(1615.865 -447.582)" fill="#fff"/>
        <path id="Path_22" data-name="Path 22" d="M-1501.061,459.4v3.412a5.566,5.566,0,0,1-2.344.46,2.95,2.95,0,0,1-1.815-.425,1.864,1.864,0,0,1-.54-1.528,1.731,1.731,0,0,1,.586-1.528,3.064,3.064,0,0,1,1.712-.391,7.831,7.831,0,0,1,1.654.184,1.966,1.966,0,0,0-.345-1.39,2.05,2.05,0,0,0-1.366-.333,4.215,4.215,0,0,0-1.666.276l-.218-.7a6.981,6.981,0,0,1,1.93-.286,2.826,2.826,0,0,1,1.861.483A2.281,2.281,0,0,1-1501.061,459.4Zm-.747,2.929v-2.114a6.563,6.563,0,0,0-1.562-.149,2.415,2.415,0,0,0-1.241.218q-.31.207-.31.977,0,.85.3,1.091a2.206,2.206,0,0,0,1.252.242,4.711,4.711,0,0,0,1.564-.266Z" transform="translate(1591.243 -454.818)" fill="#fff"/>
        <path id="Path_23" data-name="Path 23" d="M-1474.133,457.146a4.8,4.8,0,0,1,.6.035v.77a4.117,4.117,0,0,0-.6-.046,2.935,2.935,0,0,0-1.178.2.629.629,0,0,0-.453.569v4.433h-.747v-5.8h.747v.413a1.469,1.469,0,0,1,.638-.408,2.8,2.8,0,0,1,.994-.167Z" transform="translate(1568.44 -454.814)" fill="#fff"/>
        <path id="Path_24" data-name="Path 24" d="M-1453.989,454.859h-.965q-2.321-2.86-2.93-3.067v3.067h-.747v-8.294h.747v5.227a20.761,20.761,0,0,0,2.723-2.734h.965a20.328,20.328,0,0,1-2.654,2.631A18.358,18.358,0,0,1-1453.989,454.859Z" transform="translate(1554.5 -446.565)" fill="#fff"/>
      </g>
    </g>
  </g>
</svg>
